<?xml version="1.0" encoding="UTF-8"?><svg id="Layer_2" xmlns="http://www.w3.org/2000/svg" xmlns:xlink="http://www.w3.org/1999/xlink" viewBox="0 0 752.66 210.77"><defs><style>.cls-1{fill:#061e51;}.cls-1,.cls-2,.cls-3,.cls-4,.cls-5,.cls-6,.cls-7,.cls-8{stroke-width:0px;}.cls-2{fill:url(#linear-gradient);}.cls-3{fill:#2364f6;}.cls-4{fill:url(#linear-gradient-2);}.cls-9{fill:none;stroke:#fff;stroke-miterlimit:10;stroke-width:2.03px;}.cls-5{fill:url(#linear-gradient-3);}.cls-6{fill:#56c3ff;}.cls-7{fill:#fff;}.cls-8{fill:url(#linear-gradient-4);}</style><linearGradient id="linear-gradient" x1="130.51" y1="145.23" x2="198.29" y2="145.23" gradientUnits="userSpaceOnUse"><stop offset="0" stop-color="#061e51"/><stop offset=".03" stop-color="#08245f"/><stop offset=".13" stop-color="#0f3487"/><stop offset=".24" stop-color="#1543a9"/><stop offset=".36" stop-color="#1a4fc5"/><stop offset=".48" stop-color="#1e58da"/><stop offset=".61" stop-color="#205fea"/><stop offset=".77" stop-color="#2262f3"/><stop offset="1" stop-color="#2364f6"/></linearGradient><linearGradient id="linear-gradient-2" x1="22.1" y1="221.61" x2="175.13" y2="68.58" gradientUnits="userSpaceOnUse"><stop offset="0" stop-color="#2364f6"/><stop offset=".4" stop-color="#2263f4"/><stop offset=".55" stop-color="#2160ed"/><stop offset=".66" stop-color="#1f5be1"/><stop offset=".74" stop-color="#1c54d0"/><stop offset=".81" stop-color="#184aba"/><stop offset=".88" stop-color="#133f9f"/><stop offset=".94" stop-color="#0e317e"/><stop offset=".99" stop-color="#07215a"/><stop offset="1" stop-color="#061e51"/></linearGradient><linearGradient id="linear-gradient-3" x1="86.64" y1="237.92" x2="5.64" y2="97.63" gradientUnits="userSpaceOnUse"><stop offset="0" stop-color="#2364f6"/><stop offset=".12" stop-color="#215feb"/><stop offset=".33" stop-color="#1c53ce"/><stop offset=".61" stop-color="#133f9f"/><stop offset=".93" stop-color="#08235e"/><stop offset="1" stop-color="#061e51"/></linearGradient><linearGradient id="linear-gradient-4" x1="34.55" y1="222.73" x2="78.67" y2="146.32" gradientUnits="userSpaceOnUse"><stop offset="0" stop-color="#061e51"/><stop offset=".07" stop-color="#08235e"/><stop offset=".39" stop-color="#133f9f"/><stop offset=".67" stop-color="#1c53ce"/><stop offset=".88" stop-color="#215feb"/><stop offset="1" stop-color="#2364f6"/></linearGradient></defs><g id="Layer_1-2"><g id="_1"><g id="_1-2"><path class="cls-6" d="M20.35,74.14h0s163.17,0,163.17,0v-9.02c0-5.88-4.76-10.64-10.64-10.64"/><path class="cls-2" d="M198.29,99.79v90.89c0,3.56-.85,6.9-2.33,9.79-.77,1.49-1.7,2.86-2.77,4.07-1.44,1.66-3.14,3.04-5.03,4.07h-.53c-4.33,0-8.47-1.71-11.52-4.77l-44.1-44.09c-.96-.96-1.49-2.25-1.49-3.61v-22.63c0-1.41.56-2.75,1.56-3.75l43.15-43.15c2.27-2.27,5.14-3.8,8.24-4.44,1.07-.22,2.17-.33,3.28-.33h1.43c.19.11.38.22.57.33,1.68,1,3.19,2.29,4.49,3.79,1.07,1.22,2,2.59,2.75,4.07,1.47,2.89,2.31,6.21,2.31,9.75Z"/><path class="cls-4" d="M171.77,204.18l-44.09-44.09c-.96-.96-1.49-2.25-1.49-3.61v-22.63c0-1.41.56-2.76,1.55-3.75l43.15-43.15c3.06-3.06,7.2-4.77,11.52-4.77h6.32c-.19-.12-.38-.22-.57-.33-2.49-1.37-5.31-2.15-8.29-2.15H18.41c-8.64,0-15.9,6.51-17.87,15.28-.35,1.54-.54,3.16-.54,4.81v90.89c0,6.89,3.18,12.98,8.03,16.6,2.95,2.2,6.53,3.49,10.38,3.49h161.47c2.73,0,5.31-.65,7.64-1.81h-4.22c-4.32,0-8.47-1.72-11.52-4.77Z"/><path class="cls-5" d="M133.67,210.77H18.41c-3.85,0-7.42-1.29-10.38-3.49-4.85-3.62-8.03-9.7-8.03-16.6v-89.79c3.88,1.26,7.97,2.79,12.2,4.66,46.37,20.53,55.72,58.47,91.82,87.26,3.15,2.51,6.73,5.13,10.78,7.75,5.41,3.49,11.65,6.97,18.87,10.21Z"/><path class="cls-8" d="M145.65,210.77H18.41c-3.85,0-7.42-1.29-10.38-3.49-4.85-3.62-8.03-9.7-8.03-16.6v-88.56c1.05.42,2.1.87,3.16,1.34,42.97,19.03,51.64,54.19,85.09,80.87,6.65,5.3,15.3,11.08,26.54,16.22,8.65,3.95,18.85,7.52,30.85,10.21Z"/><path class="cls-3" d="M239.04,127.18h16.3c7.65,0,12.12,3.26,12.12,9.12,0,4.06-2.13,6.26-4.08,7.12,2.32.82,5.9,3.02,5.9,9.16,0,6.52-4.19,9.8-12.09,9.8h-18.14v-35.2ZM255.2,140.37c2.9,0,4.65-1.07,4.65-3.12s-1.66-3.06-4.73-3.06h-8.61v6.17h8.69ZM256.92,155.35c3.06,0,4.8-1.29,4.8-4.06.04-2.69-1.74-4.11-4.8-4.11h-10.41v8.17h10.41Z"/><path class="cls-3" d="M291.95,127.18h7.73v35.2h-7.73v-35.2Z"/><path class="cls-3" d="M324.68,127.18h7.73l-.04,28.17h17.82v7.02h-25.5v-35.2Z"/><path class="cls-3" d="M371.48,127.18h7.73l-.04,28.17h17.82v7.02h-25.5v-35.2Z"/><path class="cls-1" d="M409.66,127.18h8.51l8.36,19.95,9.68-21.12,9.67,21.12,8.53-19.95h8.39l-16.17,35.03-10.42-20.45-10.35,20.45-16.2-35.03Z"/><path class="cls-1" d="M494.23,125.66l20.18,36.71h-8.28l-3.56-6.64h-16.8l-3.54,6.64h-8.44l20.45-36.71ZM499.13,149.34l-4.99-9.29-4.96,9.29h9.95Z"/><path class="cls-1" d="M534.06,127.18h7.73l-.04,28.17h17.82v7.02h-25.5v-35.2Z"/><path class="cls-1" d="M580.87,127.18h7.73l-.04,28.17h17.82v7.02h-25.5v-35.2Z"/><path class="cls-1" d="M627.67,127.18h27.77v7.01h-20.09v6.16l14.1.03v6.79h-14.1v8.17h20.13v7.03h-27.82v-35.2Z"/><path class="cls-1" d="M685.98,134.21h-11.19l-.04-7.02h30.01v7.02h-11.17v28.17h-7.61v-28.17Z"/><path class="cls-3" d="M725.47,129.16h-3.8l-.02-2.38h10.19v2.38h-3.79v9.56h-2.58v-9.56Z"/><path class="cls-3" d="M741.67,131.51v7.21h-2.61v-11.94h2.61l4.18,7.65,4.26-7.65h2.55v11.94h-2.61v-7.18l-4.16,7.55-4.22-7.58Z"/><rect class="cls-6" x="139.9" y="141.64" width="12.93" height="12.93"/><path class="cls-7" d="M151.24,142.87s.08.04.08.08v11.18s-.04.08-.08.08h-11.18s-.08-.04-.08-.08v-11.18s.04-.08.08-.08h11.18M151.24,140.84h-11.18c-1.17,0-2.12.95-2.12,2.12v11.18c0,1.17.95,2.12,2.12,2.12h11.18c1.17,0,2.12-.95,2.12-2.12v-11.18c0-1.17-.95-2.12-2.12-2.12h0Z"/><path class="cls-1" d="M198.29,106.76v4.07h-36.15l-.04.04-16.71,16.71h6.63c2.25,0,4.07,1.82,4.07,4.07h-18.25c-.85,0-1.27-1.03-.67-1.62l20.74-20.75,2.53-2.53h37.84Z"/><path class="cls-1" d="M198.29,179.64v4.07h-37.84l-2.65-2.66-20.62-20.62c-.6-.6-.18-1.62.67-1.62h18.25c0,1.13-.45,2.15-1.19,2.88-.74.74-1.76,1.2-2.89,1.2h-6.63l16.75,16.75h36.15Z"/><path class="cls-1" d="M198.29,131.66h-26.92l-3.48,3.47c-1.59,1.6-4.17,1.6-5.76,0l7.55-7.54h28.6v4.07Z"/><path class="cls-1" d="M198.29,158.89v4.07h-28.6l-7.55-7.55c.79-.79,1.83-1.2,2.88-1.2s2.08.4,2.88,1.2l3.48,3.48h26.92Z"/><path class="cls-1" d="M193.23,85.97h-12.01l-23.27,23.28s-.03.03-.03.04h0c-.54.6-.12,1.58.71,1.58h18.25v-.04c-.02-2.23-1.83-4.03-4.07-4.03h-6.63l.04-.04,16.71-16.71h13.07l-2.75-4.07Z"/><path class="cls-1" d="M195.96,200.47h-13.04l-16.75-16.75h6.63s.1,0,.14,0c1.07-.03,2.04-.48,2.74-1.19.74-.73,1.2-1.75,1.2-2.88h-18.25c-.75,0-1.17.81-.83,1.41,0,0,0,0,0,0,.03.07.08.14.15.21l23.27,23.28h11.97l2.77-4.07Z"/><path class="cls-3" d="M20.35,74.14h0s160.6-28.87,160.6-28.87l-1.6-8.87c-1.04-5.78-6.57-9.63-12.35-8.59"/><path class="cls-1" d="M20.35,74.1h0S172.53,15.21,172.53,15.21l-3.25-8.41c-2.12-5.48-8.28-8.2-13.76-6.08"/><circle class="cls-7" cx="145.7" cy="150.18" r="2.17"/><path class="cls-7" d="M145.7,145.3h0c.59,0,1.07.48,1.07,1.07v2.83h-2.15v-2.83c0-.59.48-1.07,1.07-1.07Z"/><path class="cls-9" d="M145.65,135.22h0c2.24,0,4.06,1.82,4.06,4.06v2.39h-8.13v-2.39c0-2.24,1.82-4.06,4.06-4.06Z"/></g></g></g></svg>